<?xml version="1.0" standalone="no"?>
<!DOCTYPE svg PUBLIC "-//W3C//DTD SVG 20010904//EN"
 "http://www.w3.org/TR/2001/REC-SVG-20010904/DTD/svg10.dtd">
<svg version="1.0" xmlns="http://www.w3.org/2000/svg"
 width="852.000000pt" height="854.000000pt" viewBox="0 0 852.000000 854.000000"
 preserveAspectRatio="xMidYMid meet">

<g transform="translate(0.000000,854.000000) scale(0.100000,-0.100000)"
fill="#000" stroke="none">
<path d="M4040 8534 c-25 -2 -103 -9 -175 -14 -568 -47 -1179 -238 -1698 -531
-151 -85 -423 -270 -563 -382 -882 -708 -1439 -1713 -1576 -2844 -31 -255 -31
-730 0 -983 138 -1136 693 -2137 1576 -2847 140 -112 412 -297 563 -382 1056
-596 2317 -713 3468 -321 358 122 649 266 980 486 792 524 1383 1297 1685
2204 153 459 215 846 215 1350 0 207 -5 330 -18 450 -139 1272 -825 2404
-1882 3104 -205 136 -301 191 -516 295 -443 214 -904 346 -1391 397 -138 14
-575 26 -668 18z m495 -1115 c1311 -114 2420 -1041 2769 -2314 76 -279 109
-531 109 -835 0 -864 -341 -1672 -959 -2270 -596 -577 -1368 -890 -2194 -890
-719 0 -1405 240 -1970 690 -134 107 -382 355 -490 490 -381 478 -614 1050
-680 1670 -15 135 -15 485 0 620 66 620 299 1192 680 1670 105 131 354 381
480 481 492 393 1087 634 1691 688 138 12 426 12 564 0z"/>
<path d="M4177 6330 c-101 -26 -205 -112 -250 -207 l-22 -48 -2 -1005 -3
-1005 23 -39 c12 -22 39 -53 60 -70 l39 -31 1266 0 1267 0 55 28 c75 39 133
98 167 171 24 53 28 73 28 151 0 76 -4 99 -26 145 -33 70 -103 141 -177 177
l-57 28 -895 5 c-872 5 -896 6 -929 25 -19 11 -48 37 -65 58 l-31 39 -5 657
-5 656 -32 66 c-60 121 -171 196 -300 204 -37 2 -85 0 -106 -5z"/>
</g>
</svg>
