<?xml version="1.0" standalone="no"?>
<!DOCTYPE svg PUBLIC "-//W3C//DTD SVG 20010904//EN"
 "http://www.w3.org/TR/2001/REC-SVG-20010904/DTD/svg10.dtd">
<svg version="1.0" xmlns="http://www.w3.org/2000/svg"
 width="601.000000pt" height="668.000000pt" viewBox="0 0 601.000000 668.000000"
 preserveAspectRatio="xMidYMid meet">

<g transform="translate(0.000000,668.000000) scale(0.100000,-0.100000)"
fill="#000000" stroke="none">
<path d="M2520 6665 c-8 -2 -49 -9 -90 -15 -143 -23 -342 -100 -464 -178 -266
-171 -461 -417 -556 -701 -57 -171 -62 -205 -67 -518 -6 -331 -1 -361 65 -448
150 -197 453 -163 564 64 22 43 23 63 30 316 7 297 12 329 72 450 71 141 176
244 321 310 135 62 85 60 1200 60 1145 0 1081 4 1252 -75 194 -90 322 -218
412 -412 82 -176 76 0 76 -2183 l0 -1940 -23 -85 c-82 -309 -295 -524 -607
-612 l-80 -23 -1035 0 -1035 0 -80 27 c-218 74 -372 228 -442 443 -24 76 -26
95 -32 350 -6 253 -7 273 -29 316 -111 227 -414 261 -564 64 -66 -87 -71 -117
-65 -448 5 -314 9 -347 68 -521 126 -378 447 -699 825 -825 205 -69 118 -64
1313 -68 1053 -4 1087 -3 1204 17 313 53 579 191 807 420 227 227 367 494 420
805 20 114 20 160 20 2085 0 1925 0 1971 -20 2085 -53 311 -193 580 -419 805
-229 228 -494 367 -806 420 -112 19 -158 20 -1168 19 -579 -1 -1059 -3 -1067
-4z"/>
<path d="M2883 4650 c-71 -28 -146 -98 -180 -168 -24 -49 -28 -69 -28 -142 1
-136 9 -148 281 -420 128 -130 234 -239 234 -243 0 -4 -654 -7 -1453 -7 -1614
0 -1507 5 -1602 -68 -171 -129 -171 -395 0 -524 95 -73 -12 -68 1602 -68 799
0 1453 -3 1453 -7 0 -4 -106 -113 -234 -243 -272 -272 -280 -284 -281 -420 0
-73 4 -93 28 -142 35 -72 110 -140 185 -168 45 -18 72 -21 132 -18 138 8 117
-9 712 585 354 354 545 552 561 582 52 95 53 219 5 316 -13 25 -216 236 -556
578 -603 604 -584 588 -726 594 -64 2 -92 -1 -133 -17z"/>
</g>
</svg>
