<?xml version="1.0" standalone="no"?>
<!DOCTYPE svg PUBLIC "-//W3C//DTD SVG 20010904//EN"
 "http://www.w3.org/TR/2001/REC-SVG-20010904/DTD/svg10.dtd">
<svg version="1.0" xmlns="http://www.w3.org/2000/svg"
 width="668.000000pt" height="668.000000pt" viewBox="0 0 668.000000 668.000000"
 preserveAspectRatio="xMidYMid meet">

<g transform="translate(0.000000,668.000000) scale(0.100000,-0.100000)"
fill="#900327" stroke="none">
<path d="M3182 6669 c-221 -26 -441 -112 -632 -247 -36 -25 -108 -89 -160
-141 -190 -191 -312 -424 -367 -696 -14 -74 -18 -142 -18 -375 l0 -285 26 -55
c36 -77 77 -121 151 -161 59 -32 69 -34 158 -34 79 0 103 4 141 23 75 37 125
87 161 160 l33 67 6 270 c5 257 7 274 32 350 32 97 108 216 179 280 67 60 165
117 253 146 l70 24 1055 0 1055 0 95 -32 c262 -89 454 -281 543 -543 l32 -95
0 -1985 0 -1985 -28 -85 c-91 -271 -279 -462 -547 -553 l-95 -32 -1055 0
-1055 0 -80 28 c-206 73 -361 230 -426 432 -20 63 -23 97 -28 340 l-6 270 -33
67 c-36 73 -86 123 -161 160 -67 33 -215 33 -282 0 -75 -37 -125 -87 -161
-160 l-33 -67 0 -285 c1 -314 9 -382 66 -555 67 -199 171 -367 324 -520 188
-188 403 -306 673 -367 96 -22 107 -22 1117 -26 718 -2 1053 0 1133 8 719 73
1274 624 1352 1342 14 134 14 3842 0 3976 -77 714 -628 1265 -1342 1342 -118
12 -2037 12 -2146 -1z"/>
<path d="M1249 4666 c-25 -6 -65 -24 -90 -38 -24 -15 -283 -266 -575 -560
-416 -418 -536 -544 -555 -583 -20 -42 -24 -65 -24 -145 0 -80 4 -103 24 -145
19 -39 140 -166 560 -588 463 -465 544 -542 596 -567 172 -85 365 -20 457 153
20 36 23 57 23 147 0 91 -3 111 -24 150 -14 28 -113 135 -254 277 l-231 233
1465 2 1464 3 67 33 c73 36 123 86 160 161 33 67 33 215 0 282 -37 75 -87 125
-160 161 l-67 33 -1464 3 -1465 2 231 233 c141 142 240 249 254 277 21 39 24
59 24 150 0 90 -3 111 -23 147 -50 94 -122 153 -219 178 -68 18 -112 18 -174
1z"/>
</g>
</svg>
